<svg width="64" height="64" viewBox="0 0 64 64" fill="none" xmlns="http://www.w3.org/2000/svg">
<g filter="url(#filter0_g_58_51)">
<path d="M38.2614 37.9387C40.1138 36.5645 41.4027 34.7556 42.128 32.5121L39.312 32.5654C38.6756 34.0392 37.6996 35.2019 36.384 36.0534C35.0685 36.905 33.6071 37.3316 32 37.3334C30.3929 37.3352 28.9316 36.9085 27.616 36.0534C26.3005 35.1983 25.3245 34.0356 24.688 32.5654H21.872C22.5974 34.8072 23.8863 36.6072 25.7387 37.9654C27.5911 39.3219 29.6783 40.0001 32 40.0001C34.3218 40.0001 36.4089 39.313 38.2614 37.9387ZM26.16 26.1627C26.5671 25.7574 26.7707 25.2587 26.7707 24.6667C26.7707 24.0747 26.568 23.577 26.1627 23.1734C25.7574 22.7699 25.2587 22.5672 24.6667 22.5654C24.0747 22.5636 23.5769 22.7663 23.1734 23.1734C22.7698 23.5805 22.5671 24.0783 22.5654 24.6667C22.5636 25.2552 22.7663 25.753 23.1734 26.1601C23.5769 26.5672 24.0747 26.7707 24.6667 26.7707C25.2587 26.7707 25.7565 26.5681 26.16 26.1627ZM40.8267 26.1627C41.2338 25.7574 41.4374 25.2587 41.4374 24.6667C41.4374 24.0747 41.2347 23.577 40.8294 23.1734C40.424 22.7699 39.9254 22.5672 39.3334 22.5654C38.7414 22.5636 38.2436 22.7663 37.84 23.1734C37.4365 23.5805 37.2338 24.0783 37.232 24.6667C37.2303 25.2552 37.4329 25.753 37.84 26.1601C38.2436 26.5672 38.7414 26.7707 39.3334 26.7707C39.9254 26.7707 40.4231 26.5681 40.8267 26.1627ZM32 53.3334L29.9787 51.5387C25.6267 47.5921 22.0267 44.2054 19.1787 41.3787C16.3307 38.5521 14.0836 36.057 12.4374 33.8934C10.7911 31.7299 9.63914 29.7779 8.98136 28.0374C8.32358 26.297 7.99647 24.5245 8.00003 22.7201C8.00003 19.2943 9.15203 16.4294 11.456 14.1254C13.76 11.8214 16.608 10.6685 20 10.6667C22.3467 10.6667 24.5467 11.2667 26.6 12.4667C28.6534 13.6667 30.4534 15.4125 32 17.7041C33.5467 15.4125 35.3467 13.6667 37.4 12.4667C39.4534 11.2667 41.6534 10.6667 44 10.6667C47.392 10.6667 50.24 11.8187 52.544 14.1227C54.848 16.4267 56 19.2925 56 22.7201C56 24.5245 55.6729 26.297 55.0187 28.0374C54.3627 29.7796 53.2107 31.7325 51.5627 33.8961C49.9165 36.0596 47.6774 38.5547 44.8454 41.3814C42.0134 44.2081 38.4045 47.5947 34.0187 51.5414L32 53.3334ZM32 49.7227C36.2667 45.8632 39.7778 42.5761 42.5334 39.8614C45.2889 37.1467 47.4667 34.7752 49.0667 32.7467C50.6667 30.7183 51.7778 28.9201 52.4 27.3521C53.0223 25.7841 53.3334 24.2392 53.3334 22.7174C53.3334 20.0507 52.4445 17.8196 50.6667 16.0241C48.8889 14.2285 46.6667 13.3316 44 13.3334C41.8774 13.3334 39.9182 13.9396 38.1227 15.1521C36.3271 16.3627 34.7209 18.1867 33.304 20.6241H30.696C29.2436 18.153 27.6285 16.3201 25.8507 15.1254C24.0729 13.9307 22.1227 13.3334 20 13.3334C17.3689 13.3334 15.1556 14.2312 13.36 16.0267C11.5645 17.8223 10.6667 20.0534 10.6667 22.7201C10.6667 24.2401 10.9778 25.7841 11.6 27.3521C12.2223 28.9201 13.3334 30.7094 14.9334 32.7201C16.5334 34.7307 18.7111 37.0943 21.4667 39.8107C24.2223 42.5272 27.7334 45.8312 32 49.7227Z" fill="#5C5D5E"/>
</g>
<defs>
<filter id="filter0_g_58_51" x="4" y="6.66675" width="56" height="50.6667" filterUnits="userSpaceOnUse" color-interpolation-filters="sRGB">
<feFlood flood-opacity="0" result="BackgroundImageFix"/>
<feBlend mode="normal" in="SourceGraphic" in2="BackgroundImageFix" result="shape"/>
<feTurbulence type="fractalNoise" baseFrequency="0.99900001287460327 0.99900001287460327" numOctaves="3" seed="7312" />
<feDisplacementMap in="shape" scale="8" xChannelSelector="R" yChannelSelector="G" result="displacedImage" width="100%" height="100%" />
<feMerge result="effect1_texture_58_51">
<feMergeNode in="displacedImage"/>
</feMerge>
</filter>
</defs>
</svg>
