<svg width="24" height="24" viewBox="0 0 24 24" fill="none" xmlns="http://www.w3.org/2000/svg">
<g filter="url(#filter0_g_1_3952)">
<path d="M6.74871 14.8128C6.3336 14.793 5.98106 15.1135 5.96129 15.5286C5.94152 15.9437 6.26201 16.2963 6.67712 16.316L6.71291 15.5644L6.74871 14.8128ZM6.71291 15.5644L6.67712 16.316C8.54208 16.4048 10.6905 15.6995 12.5962 14.4046C14.5118 13.1031 16.2393 11.1686 17.2321 8.71825L16.5347 8.43569L15.8373 8.15312C14.9687 10.2969 13.4487 12.0059 11.7504 13.1598C10.0423 14.3204 8.21048 14.8824 6.74871 14.8128L6.71291 15.5644Z" fill="#5C5D5E"/>
<path d="M10.1585 8.03938C9.74293 8.03938 9.40603 8.37627 9.40603 8.79185C9.40603 9.20744 9.74293 9.54433 10.1585 9.54433V8.79185V8.03938ZM10.1585 8.79185V9.54433H17.2872V8.79185V8.03938H10.1585V8.79185Z" fill="#5C5D5E"/>
<path d="M15.7822 16.2375C15.7822 16.6531 16.1191 16.99 16.5347 16.99C16.9502 16.99 17.2871 16.6531 17.2871 16.2375H16.5347H15.7822ZM16.5347 16.2375H17.2871V8.03951H16.5347H15.7822V16.2375H16.5347Z" fill="#5C5D5E"/>
</g>
<defs>
<filter id="filter0_g_1_3952" x="2.96045" y="5.03938" width="17.3268" height="14.9506" filterUnits="userSpaceOnUse" color-interpolation-filters="sRGB">
<feFlood flood-opacity="0" result="BackgroundImageFix"/>
<feBlend mode="normal" in="SourceGraphic" in2="BackgroundImageFix" result="shape"/>
<feTurbulence type="fractalNoise" baseFrequency="0.99900001287460327 0.99900001287460327" numOctaves="3" seed="3584" />
<feDisplacementMap in="shape" scale="6" xChannelSelector="R" yChannelSelector="G" result="displacedImage" width="100%" height="100%" />
<feMerge result="effect1_texture_1_3952">
<feMergeNode in="displacedImage"/>
</feMerge>
</filter>
</defs>
</svg>
