<svg width="20" height="20" viewBox="0 0 20 20" fill="none" xmlns="http://www.w3.org/2000/svg">
<g filter="url(#filter0_g_57_289)">
<path d="M10.0002 11.1666L5.91683 15.2499C5.76405 15.4027 5.56961 15.4791 5.3335 15.4791C5.09738 15.4791 4.90294 15.4027 4.75016 15.2499C4.59738 15.0971 4.521 14.9027 4.521 14.6666C4.521 14.4305 4.59738 14.236 4.75016 14.0833L8.8335 9.99992L4.75016 5.91659C4.59738 5.76381 4.521 5.56936 4.521 5.33325C4.521 5.09714 4.59738 4.9027 4.75016 4.74992C4.90294 4.59714 5.09738 4.52075 5.3335 4.52075C5.56961 4.52075 5.76405 4.59714 5.91683 4.74992L10.0002 8.83325L14.0835 4.74992C14.2363 4.59714 14.4307 4.52075 14.6668 4.52075C14.9029 4.52075 15.0974 4.59714 15.2502 4.74992C15.4029 4.9027 15.4793 5.09714 15.4793 5.33325C15.4793 5.56936 15.4029 5.76381 15.2502 5.91659L11.1668 9.99992L15.2502 14.0833C15.4029 14.236 15.4793 14.4305 15.4793 14.6666C15.4793 14.9027 15.4029 15.0971 15.2502 15.2499C15.0974 15.4027 14.9029 15.4791 14.6668 15.4791C14.4307 15.4791 14.2363 15.4027 14.0835 15.2499L10.0002 11.1666Z" fill="#CCCCCC" fill-opacity="0.73"/>
</g>
<defs>
<filter id="filter0_g_57_289" x="2.521" y="2.52075" width="14.9583" height="14.9583" filterUnits="userSpaceOnUse" color-interpolation-filters="sRGB">
<feFlood flood-opacity="0" result="BackgroundImageFix"/>
<feBlend mode="normal" in="SourceGraphic" in2="BackgroundImageFix" result="shape"/>
<feTurbulence type="fractalNoise" baseFrequency="0.99900001287460327 0.99900001287460327" numOctaves="3" seed="6877" />
<feDisplacementMap in="shape" scale="4" xChannelSelector="R" yChannelSelector="G" result="displacedImage" width="100%" height="100%" />
<feMerge result="effect1_texture_57_289">
<feMergeNode in="displacedImage"/>
</feMerge>
</filter>
</defs>
</svg>
