<svg width="24" height="24" viewBox="0 0 24 24" fill="none" xmlns="http://www.w3.org/2000/svg">
<path d="M12 2.75H8.91701C8.51206 2.74987 8.11105 2.82952 7.73689 2.98439C7.36273 3.13927 7.02274 3.36634 6.73635 3.65264C6.44996 3.93893 6.22278 4.27884 6.06778 4.65296C5.91279 5.02707 5.83301 5.42805 5.83301 5.833C5.83288 6.23803 5.91256 6.63912 6.0675 7.01335C6.22243 7.38758 6.4496 7.72761 6.736 8.01401C7.0224 8.30041 7.36243 8.52757 7.73666 8.68251C8.11088 8.83745 8.51197 8.91713 8.91701 8.917H12M12 2.75V8.917M12 2.75H15.083C15.488 2.74987 15.889 2.82952 16.2631 2.98439C16.6373 3.13927 16.9773 3.36634 17.2637 3.65264C17.5501 3.93893 17.7772 4.27884 17.9322 4.65296C18.0872 5.02707 18.167 5.42805 18.167 5.833C18.1671 6.23803 18.0875 6.63912 17.9325 7.01335C17.7776 7.38758 17.5504 7.72761 17.264 8.01401C16.9776 8.30041 16.6376 8.52757 16.2634 8.68251C15.8891 8.83745 15.488 8.91713 15.083 8.917H12" stroke="black" stroke-width="1.5" stroke-linecap="round" stroke-linejoin="round"/>
<path d="M15.083 8.91699H15.084C16.7867 8.91699 18.167 10.2973 18.167 12V12.001C18.167 13.7037 16.7867 15.084 15.084 15.084H15.083C13.3803 15.084 12 13.7037 12 12.001V12C12 10.2973 13.3803 8.91699 15.083 8.91699Z" stroke="black" stroke-width="1.5" stroke-linecap="round" stroke-linejoin="round"/>
<path d="M5.83301 12C5.83301 11.595 5.91279 11.1941 6.06778 10.8199C6.22278 10.4458 6.44996 10.1059 6.73635 9.81963C7.02274 9.53333 7.36273 9.30626 7.73689 9.15138C8.11105 8.99651 8.51206 8.91686 8.91701 8.91699H12V15.083H8.91701C8.51206 15.0831 8.11105 15.0035 7.73689 14.8486C7.36273 14.6937 7.02274 14.4667 6.73635 14.1804C6.44996 13.8941 6.22278 13.5541 6.06778 13.18C5.91279 12.8059 5.83301 12.4049 5.83301 12Z" stroke="black" stroke-width="1.5" stroke-linecap="round" stroke-linejoin="round"/>
<path d="M5.83301 18.167C5.83288 17.762 5.91256 17.3609 6.0675 16.9867C6.22243 16.6124 6.4496 16.2724 6.736 15.986C7.0224 15.6996 7.36243 15.4724 7.73666 15.3175C8.11088 15.1626 8.51197 15.0829 8.91701 15.083H12V18.167C12 18.9847 11.6752 19.7688 11.097 20.347C10.5188 20.9252 9.73467 21.25 8.91701 21.25C8.51206 21.2501 8.11105 21.1705 7.73689 21.0156C7.36273 20.8607 7.02274 20.6337 6.73635 20.3474C6.44996 20.0611 6.22278 19.7212 6.06778 19.3471C5.91279 18.9729 5.83301 18.572 5.83301 18.167Z" stroke="black" stroke-width="1.5" stroke-linecap="round" stroke-linejoin="round"/>
</svg>
